<?xml version="1.0" standalone="no"?>
<!DOCTYPE svg PUBLIC "-//W3C//DTD SVG 1.1//EN" "http://www.w3.org/Graphics/SVG/1.1/DTD/svg11.dtd" >
<svg xmlns="http://www.w3.org/2000/svg">
<metadata></metadata>
<defs>
<font id="a_coppergothcpsexpregular" horiz-adv-x="1533" >
<font-face units-per-em="2048" ascent="1638" descent="-410" />
<missing-glyph horiz-adv-x="819" />
<glyph horiz-adv-x="0" />
<glyph unicode="&#xd;" horiz-adv-x="819" />
<glyph horiz-adv-x="2048" />
<glyph horiz-adv-x="2048" />
<glyph horiz-adv-x="2048" />
<glyph horiz-adv-x="2048" />
<glyph unicode=" "  horiz-adv-x="819" />
<glyph unicode="&#x09;" horiz-adv-x="819" />
<glyph unicode="&#xa0;" horiz-adv-x="819" />
<glyph unicode="!" horiz-adv-x="813" d="M184 1399v35h443v-35q-41 0 -60 -49q-6 -20 -14 -86l-66 -535q-8 -68 -8 -115q0 -37 13.5 -52t52.5 -23v-35h-277v35q41 10 54.5 23t13.5 52q0 47 -8 115l-66 535q-8 74 -14 88q-16 47 -64 47zM236 147q0 70 51 121t121 51q74 0 123 -49t49 -123q0 -70 -51.5 -121 t-120.5 -51q-70 0 -121 51.5t-51 120.5z" />
<glyph unicode="&#x22;" horiz-adv-x="1193" d="M100 1403v39h398v-39q-43 0 -60 -41q-8 -16 -18 -78l-47 -276q-10 -59 -11 -88q0 -59 62 -76v-31h-248v31q39 10 50.5 23.5t11.5 52.5q0 29 -11 88l-47 276q-12 70 -16 80q-16 39 -64 39zM698 1403v39h398v-39q-43 0 -60 -41q-6 -14 -18 -78l-49 -276q-8 -47 -8 -88 q0 -39 11 -52.5t50 -23.5v-31h-248v31q37 10 48.5 24.5t11.5 51.5q0 25 -11 88l-45 276q-10 63 -18 80q-16 39 -62 39z" />
<glyph unicode="#" horiz-adv-x="1648" d="M55 256l70 358h35q6 -68 63 -67h176l66 342h-178q-55 0 -86 -66h-37l72 359h32q4 -70 64 -70h176q16 96 43 219v10q0 41 -55 58l8 35h358l-8 -35q-72 -18 -82 -76l-41 -211h344q16 96 43 219v10q0 41 -55 58l6 35h358l-6 -35q-74 -16 -84 -76l-39 -211h172q61 0 91 70h34 l-67 -359h-37q-8 66 -61 66h-179l-63 -342h174q59 0 88 67h33l-66 -358h-35q-4 68 -63 68h-176l-39 -213v-9q-2 -4 -2 -6q0 -41 53 -61l-8 -35h-356l8 35q72 20 82 78l39 211h-345l-38 -213v-9q-2 -4 -2 -6q0 -41 53 -61l-6 -35h-357l6 35q74 23 84 78l39 211h-174 q-61 0 -90 -68h-35zM621 547h344l67 342h-344z" />
<glyph unicode="$" d="M80 131l156 352l28 -12q0 -115 172 -186q127 -51 271 -62v361q-231 0 -388 90q-188 111 -188 327q0 231 178 351q154 102 398 102v57q0 55 -68 76v33h293v-33q-53 -16 -66 -47q-4 -14 -4 -86q141 -12 320 -78q47 -23 96 -43q63 -29 96 -28q20 0 53 22l31 -14l-172 -338 l-29 16q0 74 -96 133q-70 45 -162 68q-68 16 -137 16v-331q592 0 592 -428q0 -215 -194 -351q-172 -119 -398 -118v-70q0 -59 66 -78v-33h-289v33q55 14 66 55q2 8 2 93q-125 8 -256 45q-117 33 -263 104q-20 10 -36 10q-14 0 -43 -22zM420 1055q0 -178 287 -178v331 q-92 0 -177 -32q-111 -43 -110 -121zM862 223q106 8 182 43q107 49 107 137q0 178 -289 179v-359z" />
<glyph unicode="%" horiz-adv-x="1900" d="M72 1075q0 164 100 267.5t264 103.5q168 0 268.5 -103.5t100.5 -271.5q0 -164 -102.5 -265t-266.5 -101t-264 103t-100 267zM252 0v33q90 16 194 151l828 1067q45 57 45 86q0 49 -62 64v33h371v-33q-68 -6 -178 -150l-846 -1091q-37 -47 -37 -72q0 -41 64 -55v-33h-379z M252 1075q0 -90 47 -151q51 -70 137 -70q88 0 137.5 63.5t49.5 153.5q0 96 -43 158q-49 68 -144 67q-88 0 -136 -64.5t-48 -156.5zM1098 358q0 166 99 269.5t265 103.5q168 0 267.5 -104.5t99.5 -274.5q0 -162 -102.5 -263t-264.5 -101q-164 0 -264 103.5t-100 266.5z M1278 356q0 -90 47 -149q51 -68 137 -68t137 68q48 59 48 149q0 94 -43 156q-51 68 -142 68q-90 0 -139 -70q-45 -61 -45 -154z" />
<glyph unicode="&#x26;" horiz-adv-x="1665" d="M63 408q0 272 320 428q-143 125 -143 270q0 172 155 268q133 84 316 84q186 0 319 -84q160 -98 160 -272q0 -102 -53 -176q-39 -55 -138 -125q115 -74 168 -201q92 164 176 244q102 96 263 143v-399h-33q-6 55 -31 55q-63 0 -143 -94q-76 -86 -92 -154q123 -123 211 -123 q45 0 55 52h33v-324q-164 0 -265 35q-119 39 -219 147q-217 -207 -508 -207q-215 0 -372 107q-178 121 -179 326zM352 467q0 -117 94 -186q84 -61 205 -62q113 0 211 55q113 68 113 172q0 117 -111 193q-100 68 -221 68q-111 0 -197 -64q-94 -70 -94 -176zM500 1063 q0 -84 69 -133q61 -45 150 -45q86 0 147 45q70 51 70 133q0 88 -66 137q-59 43 -151 43q-90 0 -152 -45q-68 -49 -67 -135z" />
<glyph unicode="'" horiz-adv-x="595" d="M100 1403v39h398v-39q-43 0 -60 -41q-8 -16 -18 -78l-47 -276q-10 -59 -11 -88q0 -59 62 -76v-31h-248v31q39 10 50.5 23.5t11.5 52.5q0 29 -11 88l-47 276q-12 70 -16 80q-16 39 -64 39z" />
<glyph unicode="(" horiz-adv-x="718" d="M141 717q0 256 119 498.5t324 390.5l116 -95q-154 -180 -217 -368q-61 -180 -61 -426q0 -250 59 -426q63 -187 219 -367l-116 -96q-203 147 -324 393q-119 240 -119 496z" />
<glyph unicode=")" horiz-adv-x="718" d="M16 -76q156 178 220 367q59 176 59 426q0 254 -57 426q-63 186 -222 368l119 95q207 -150 323.5 -389.5t116.5 -499.5q0 -258 -116 -496q-119 -246 -324 -393z" />
<glyph unicode="*" horiz-adv-x="1083" d="M100 1141l99 303l39 -10q0 -27 10 -50q25 -55 225 -122q0 152 -17.5 208t-72.5 68v41h319v-41q-55 -12 -71.5 -70.5t-16.5 -205.5q100 37 127 49q90 41 103 75q6 16 6 50l37 10l96 -303l-37 -13q-31 47 -76 48q-41 0 -215 -48q139 -184 197 -184q14 0 39 12l22 -34 l-258 -187l-20 33q25 31 24 53q0 57 -116 224q-115 -168 -115 -224q0 -25 27 -53l-27 -33l-256 187l23 34q27 -12 41 -12q61 0 192 182q-166 49 -213 50q-43 0 -76 -48z" />
<glyph unicode="+" horiz-adv-x="1648" d="M246 547v340h30q18 -68 70 -68h377v375q0 53 -68 72v28h340v-28q-68 -23 -67 -72v-375h375q55 0 69 68h31v-340h-31q-14 68 -69 67h-375v-374q0 -57 67 -72v-29h-340v31q68 14 68 70v374h-377q-51 0 -70 -67h-30z" />
<glyph unicode="," horiz-adv-x="659" d="M158 150q0 74 42 121.5t113 47.5q96 0 146 -77q43 -68 43 -168q0 -231 -246 -404l-49 68q84 55 119 104q43 55 59 146q-53 -12 -74 -13q-72 0 -112.5 51.5t-40.5 123.5z" />
<glyph unicode="-" horiz-adv-x="479" d="M0 408v362h33q18 -68 76 -68h260q57 0 77 68h33v-362h-33q-20 68 -77 67h-260q-57 0 -76 -67h-33z" />
<glyph unicode="." horiz-adv-x="659" d="M158 147q0 70 51 121t121 51q74 0 123 -49t49 -123q0 -72 -50.5 -122t-121.5 -50q-70 0 -121 51.5t-51 120.5z" />
<glyph unicode="/" horiz-adv-x="1634" d="M72 0v33q68 12 110 53q6 4 78 98l827 1067q47 61 48 86q0 49 -64 64v33h492v-33q-57 -10 -105 -55q-18 -18 -76 -95l-843 -1091q-39 -51 -39 -72q0 -41 63 -55v-33h-491z" />
<glyph unicode="0" d="M88 719q0 322 174 524q186 215 502 215q319 0 506 -219q176 -206 176 -532q0 -311 -182 -517q-190 -215 -498 -215q-315 0 -502 218q-176 207 -176 526zM408 727q0 -188 84 -326q98 -166 274 -165q174 0 274 161q86 138 86 322q0 199 -79 332q-98 164 -283 163 q-174 0 -272 -163q-84 -137 -84 -324z" />
<glyph unicode="1" d="M463 915v383h33q18 -63 55 -63q27 0 121 37v51q0 63 -68 78v33h438v-33q-68 -14 -67 -78v-1214q0 -55 67 -76v-33h-438v33q68 20 68 76v915l-101 -31q-59 -18 -75 -78h-33z" />
<glyph unicode="2" d="M86 0q0 369 315 555q92 55 410 201q236 109 236 266q0 193 -256 192q-82 0 -150 -16q-84 -20 -162 -72q-100 -66 -100 -133q0 -12 16 -65l-22 -25l-281 303l25 21q35 -12 61 -13q16 0 105 64q102 74 114 80q184 100 430 100q229 0 375 -104q164 -117 164 -338t-180 -361 q-88 -70 -375 -196l-188 -78q-121 -55 -156 -119v-4h872q57 0 78 68h33v-394h-33q-20 68 -78 68h-1116q-49 0 -65 -10q-23 -12 -31 -58h-35q-6 49 -6 68z" />
<glyph unicode="3" d="M47 111l168 389l29 -15q-4 -20 -4 -22q0 -90 145 -158q100 -49 225 -69q96 -16 181 -17q131 0 223 43q121 55 121 170q0 207 -336 207q-84 0 -111 -6q-66 -14 -78 -68h-32v350h32q14 -55 74 -69q25 -6 109 -6q311 0 311 190q0 184 -313 184q-225 0 -373 -92 q-78 -49 -78 -96q0 -23 12 -47l-24 -21l-242 297l27 21q39 -18 57 -19q20 0 57 25q270 176 588 176q231 0 385 -88q190 -111 191 -323q0 -186 -181 -295q238 -87 238 -318q0 -240 -219 -360q-174 -98 -434 -99q-289 0 -523 113q-98 47 -125 47q-31 0 -71 -39z" />
<glyph unicode="4" d="M94 172v307l713 799q47 53 47 78q0 39 -55 45v33h563v-33q-68 -14 -68 -78v-844h80q57 0 76 66h33v-373h-33q-16 59 -55 70h-101v-133q0 -55 68 -76v-33h-438v33q68 20 67 76v133h-762q-51 0 -69 -11q-25 -14 -33 -59h-33zM436 479h555v629z" />
<glyph unicode="5" d="M59 170l254 334l27 -17q-8 -29 -8 -47q0 -98 194 -166q158 -55 281 -55q143 0 237 60q111 70 111 204q0 131 -115 199q-92 57 -233 57q-88 0 -189 -24q-139 -33 -139 -92q0 -20 15 -43l-25 -23l-371 371l25 26q39 0 50 12.5t11 51.5v301q0 66 -67 82v33h1138q57 0 78 69 h33v-381h-33q-20 68 -78 68h-819v-309q172 86 402 86q260 0 428 -109q200 -127 200 -373q0 -262 -202 -395q-174 -115 -449 -115q-266 0 -438 91q-55 33 -111 65q-74 41 -116 41q-25 0 -62 -22z" />
<glyph unicode="6" d="M100 702q0 338 213 547t551 209q123 0 215 -20q76 -16 224 -78q45 -18 71 -19q33 0 56 29l26 -18l-184 -344l-31 14q6 27 6 41q0 80 -157 127q-119 37 -224 37q-205 0 -336 -126t-131 -331q201 178 467 178q238 0 404 -119q184 -131 184 -360q0 -244 -213 -379 q-182 -115 -440 -115q-334 0 -520 199q-180 193 -181 528zM463 461q0 -125 117 -193q98 -57 231 -57q131 0 227 57q117 70 117 191q0 131 -115 196q-92 53 -233 54q-135 0 -229 -56q-115 -66 -115 -192z" />
<glyph unicode="7" d="M88 1130v373h33q16 -70 78 -69h1136q61 0 78 69h33v-276l-647 -1063q-39 -63 -39 -80q0 -29 59 -51v-33h-512v33q80 25 146 131l641 1034h-895q-59 0 -78 -68h-33z" />
<glyph unicode="8" d="M80 428q0 258 319 338q-258 102 -258 307q0 215 221 313q160 72 408 72t408 -72q217 -96 217 -313q0 -205 -258 -307q319 -80 319 -338q0 -250 -231 -365q-178 -88 -455 -88q-283 0 -457 86q-233 115 -233 367zM399 432q0 -117 136 -172q96 -41 233 -41q141 0 236 39 q133 55 133 174q0 123 -131 178q-94 39 -238 39q-141 0 -236 -41q-133 -55 -133 -176zM442 1061q0 -96 123 -141q86 -31 203 -31q115 0 203 31q123 45 123 139q0 176 -326 176q-117 0 -203 -33q-123 -45 -123 -141z" />
<glyph unicode="9" d="M80 84l184 342l31 -14q-6 -25 -6 -41q0 -74 157 -125q123 -39 222 -39q207 0 337 125t130 332q-199 -176 -467 -177q-238 0 -402 117q-182 133 -182 361q0 244 211 378q180 115 438 115q338 0 522 -194q179 -193 179 -533q0 -336 -212 -546t-550 -210q-115 0 -215 23 q-80 18 -226 78q-45 18 -67 18q-14 0 -31 -10q-18 -16 -27 -18zM379 975q0 -125 117 -193q94 -55 229 -55q131 0 229 55q117 68 117 189q0 129 -115 196q-92 55 -231 56q-133 0 -229 -56q-117 -70 -117 -192z" />
<glyph unicode=":" horiz-adv-x="659" d="M158 147q0 70 51 121t121 51q74 0 123 -49t49 -123q0 -72 -50.5 -122t-121.5 -50q-70 0 -121 51.5t-51 120.5zM158 1030q0 72 50 122t122 50q74 0 123 -49t49 -123q0 -72 -50.5 -122t-121.5 -50q-70 0 -121 51.5t-51 120.5z" />
<glyph unicode=";" horiz-adv-x="659" d="M158 150q0 74 42 121.5t113 47.5q96 0 146 -77q43 -68 43 -168q0 -231 -246 -404l-49 68q84 55 119 104q43 55 59 146q-53 -12 -74 -13q-72 0 -112.5 51.5t-40.5 123.5zM158 1030q0 72 50 122t122 50q74 0 123 -49t49 -123q0 -72 -50.5 -122t-121.5 -50q-70 0 -121 51.5 t-51 120.5z" />
<glyph unicode="&#x3c;" horiz-adv-x="1075" d="M72 590v254l932 485v-303l-609 -307l609 -311v-304z" />
<glyph unicode="=" horiz-adv-x="1648" d="M246 303v340h33q14 -68 67 -68h957q49 0 67 68h33v-340h-33q-18 68 -67 68h-957q-49 0 -67 -68h-33zM246 791v339h33q14 -68 67 -67h957q49 0 67 67h33v-339h-33q-10 39 -20 49q-14 18 -47 18h-957q-49 0 -67 -67h-33z" />
<glyph unicode="&#x3e;" horiz-adv-x="1075" d="M72 104v304l608 311l-608 307v303l932 -485v-254z" />
<glyph unicode="?" horiz-adv-x="1075" d="M59 1294l29 19q29 -14 43 -15q27 0 92 43q98 66 175 91.5t165 25.5q158 0 260 -78q115 -87 115 -239q0 -94 -57 -185q-39 -59 -129 -149q-37 -35 -95 -111q-20 -39 -20 -106q0 -47 61 -64v-32h-346v32q47 6 72 95q10 51 39 145q14 31 112 154q76 94 76 163 q0 152 -164 152q-72 0 -143 -39q-84 -45 -84 -113q0 -12 8 -34l-28 -19zM371 147q0 70 51 121t121 51q74 0 123 -49t49 -123q0 -72 -50.5 -122t-121.5 -50q-70 0 -121 51.5t-51 120.5z" />
<glyph unicode="@" horiz-adv-x="1767" d="M113 702q0 334 243 549q233 205 572 205q293 0 499 -164q226 -176 226 -461q0 -184 -82 -313q-98 -152 -273 -151q-96 0 -139 16q-66 27 -80 106q-121 -100 -336 -100q-123 0 -198 64q-82 70 -82 190q0 197 131 303q121 98 321 98q150 0 259 -102l22 76h143l-94 -375 q-18 -74 -18 -133q0 -31 55 -31q115 0 170 107q45 84 45 209q0 225 -178 370q-168 135 -399 135q-248 0 -445 -163q-207 -172 -207 -416q0 -240 175 -413t417 -173q406 0 406 101l24 6l72 -246l-25 -6q-31 49 -59 49q-10 0 -37 -6q-223 -53 -358 -53q-319 0 -541 200 q-229 207 -229 522zM627 678q0 -84 35.5 -121t119.5 -37q250 0 316 180q12 36 12 54q0 70 -80 116q-70 41 -145 41q-123 0 -190.5 -71.5t-67.5 -161.5z" />
<glyph unicode="A" horiz-adv-x="1751" d="M8 0v33q68 14 115 112l526 1102q25 51 25 84q0 49 -60 68v35h508v-35q-63 -14 -63 -60q0 -29 20 -69l547 -1106q57 -119 131 -131v-33h-526v33q67 14 67 64q0 25 -20 67l-96 203h-652l-98 -203q-20 -43 -20 -68q0 -43 71 -63v-33h-475zM623 563h464l-227 504h-4z" />
<glyph unicode="B" horiz-adv-x="1734" d="M131 0v33q66 20 66 76v1214q0 57 -66 76v35h971q231 0 365.5 -84t134.5 -295t-195 -303q240 -92 240 -340q0 -412 -537 -412h-979zM508 236h534q131 0 195 30q90 45 90 166q0 119 -90 164q-63 31 -195 31h-534v-391zM508 864h551q106 0 160 27q71 39 71 139 q0 102 -71 139q-51 29 -160 29h-551v-334z" />
<glyph unicode="C" horiz-adv-x="1804" d="M96 719q0 354 252 555q231 184 594 184q219 0 367 -59q51 -20 114 -53q55 -31 113 -64q88 -49 106 -49q23 0 50 29l26 -21l-198 -299l-29 21q0 92 -119 161q-86 49 -205 74q-88 18 -188 19q-240 0 -395 -127q-168 -137 -168 -371q0 -233 168 -371q158 -129 395 -129 q82 0 172 19q109 23 209 77q131 74 131 158l29 19l198 -299l-26 -19q-27 27 -50 27q-6 0 -223 -115q-131 -70 -260 -94q-94 -16 -219 -17q-358 0 -592 189q-252 205 -252 555z" />
<glyph unicode="D" horiz-adv-x="1802" d="M131 0v33q66 20 66 76v1214q0 59 -66 76v35h797q778 0 778 -715q0 -719 -778 -719h-797zM508 236h395q250 0 366.5 116.5t116.5 366.5t-116.5 364.5t-366.5 114.5h-395v-962z" />
<glyph unicode="E" horiz-adv-x="1634" d="M131 0v33q66 23 66 76v1214q0 57 -66 76v35h1276q57 0 76 69h35v-373h-35q-18 68 -76 68h-899v-340h586q55 0 73 66h35v-361h-35q-18 68 -73 68h-586v-395h926q55 0 75 67h33v-371h-33q-20 68 -75 68h-1303z" />
<glyph unicode="F" horiz-adv-x="1564" d="M131 0v33q66 23 66 76v1214q0 57 -66 76v35h1268q59 0 76 69h34v-373h-34q-18 68 -76 68h-891v-342h582q59 0 77 68h35v-363h-35q-18 66 -77 66h-582v-518q0 -55 67 -76v-33h-444z" />
<glyph unicode="G" horiz-adv-x="1845" d="M96 719q0 360 260 559q236 180 607 180q240 0 479 -96q76 -31 100 -31q18 0 51 27l29 -17l-168 -346l-29 19q-2 35 -10 50t-37 38q-68 51 -202 84q-123 31 -222 31q-229 0 -381 -136q-158 -139 -157 -366q0 -231 166 -369q154 -127 389 -127q254 0 432 100v197h-352 q-57 0 -76 -65h-33v331h33q18 -67 74 -67h2h680v-35q-66 -14 -66 -76v-293q0 -59 66 -75v-27q-408 -233 -791 -234q-365 0 -594 187q-250 203 -250 557z" />
<glyph unicode="H" horiz-adv-x="1843" d="M129 0v33q66 23 66 76v1214q0 57 -66 76v35h444v-35q-68 -18 -67 -76v-461h829v461q0 59 -67 76v35h446v-35q-68 -16 -67 -76v-1214q0 -53 67 -76v-33h-446v33q68 20 67 76v518h-829v-518q0 -55 67 -76v-33h-444z" />
<glyph unicode="I" horiz-adv-x="706" d="M131 0v33q66 23 66 76v1214q0 57 -66 76v35h444v-35q-68 -18 -67 -76v-1214q0 -55 67 -76v-33h-444z" />
<glyph unicode="J" horiz-adv-x="1300" d="M6 55l135 363l31 -10q0 -43 35 -80q104 -109 352 -109q150 0 205 62.5t55 214.5v827q0 57 -67 76v35h448v-35q-68 -18 -67 -76v-844q0 -264 -126 -384t-393 -120q-141 0 -264 35q-61 20 -123 39q-74 23 -127 23q-31 0 -63 -29z" />
<glyph unicode="K" horiz-adv-x="1724" d="M131 0v33q66 23 66 76v1214q0 57 -66 76v35h444v-35q-68 -18 -67 -76v-500l594 482q39 31 39 53q0 31 -62 41v35h588v-35q-47 -8 -80 -34t-65 -54l-568 -457l553 -666q80 -96 82 -98q47 -45 113 -57v-33h-559v33q55 14 55 41q0 14 -51 78l-422 518l-217 -174v-387 q0 -55 67 -76v-33h-444z" />
<glyph unicode="L" horiz-adv-x="1521" d="M131 0v33q66 23 66 76v1214q0 57 -66 76v35h444v-35q-68 -18 -67 -76v-1087h883q61 0 75 67h35v-371h-35q-14 68 -75 68h-1260z" />
<glyph unicode="M" horiz-adv-x="2080" d="M131 0v33q66 23 66 76v1214q0 57 -66 76v35h549v-35q-47 -12 -47 -56q0 -23 14 -49l391 -721l396 709q27 47 26 72q0 43 -53 45v35h543v-35q-68 -16 -68 -76v-1214q0 -53 68 -76v-33h-447v33q66 20 66 76v882l-555 -971l-531 971v-882q0 -55 68 -76v-33h-420z" />
<glyph unicode="N" horiz-adv-x="1873" d="M131 0v33q66 23 66 76v1214q0 57 -66 76v35h487v-35q-47 -8 -47 -45q0 -27 29 -58l791 -821v848q0 57 -68 76v35h424v-35q-68 -18 -68 -76v-1214q0 -55 68 -76v-33h-453v33q45 10 45 47q0 16 -53 72l-803 831v-874q0 -55 68 -76v-33h-420z" />
<glyph unicode="O" horiz-adv-x="1835" d="M92 719q0 348 244 551q227 188 582 188q348 0 579 -198q246 -209 246 -551q0 -340 -248 -543q-231 -190 -577 -191q-348 0 -580 195q-246 209 -246 549zM414 719q0 -219 142 -359.5t362 -140.5q215 0 359 139.5t144 352.5q0 225 -139 365.5t-364 140.5 q-219 0 -361.5 -139.5t-142.5 -358.5z" />
<glyph unicode="P" horiz-adv-x="1642" d="M129 0v33q66 20 66 76v1214q0 57 -66 76v35h895q262 0 395 -80q168 -102 168 -346q0 -426 -563 -426h-518v-473q0 -55 67 -76v-33h-444zM506 819h479q135 0 209 35t74 154t-72 154.5t-211 35.5h-479v-379z" />
<glyph unicode="Q" horiz-adv-x="1841" d="M96 719q0 344 244 549q227 190 580 190q352 0 581 -190q246 -205 246 -549q0 -313 -225 -535l108 -114q53 -57 84 -58q16 0 47 13l23 -25l-307 -279l-23 25q20 33 21 53q0 20 -183 238q-154 -61 -379 -62q-348 0 -575 195q-242 207 -242 549zM418 719q0 -219 141 -359.5 t361 -140.5q102 0 194 33q-98 162 -283 205v28q78 59 173 60q127 0 309 -150q112 142 112 324q0 219 -143 358.5t-362 139.5t-360.5 -140.5t-141.5 -357.5z" />
<glyph unicode="R" horiz-adv-x="1740" d="M131 0v33q66 23 66 76v1214q0 57 -66 76v35h905q471 0 555 -246q27 -78 27 -180q0 -350 -391 -412l278 -395q72 -100 78 -109q51 -55 115 -59v-33h-520v33q53 8 53 39q0 20 -49 92l-291 420h-383v-475q0 -55 67 -76v-33h-444zM508 821h483q145 0 209 25q105 41 105 162 q0 125 -103 166q-59 24 -200 24h-11h-483v-377z" />
<glyph unicode="S" horiz-adv-x="1550" d="M86 131l156 352l30 -14q0 -117 213 -193q166 -57 314 -57q117 0 219 39q139 51 139 148q0 33 -10 57q-29 66 -209 96q-16 2 -236 25q-283 29 -423 118t-140 299q0 238 199 359q164 98 418 98q211 0 403 -72q219 -82 223 -81q18 0 52 22l28 -14l-170 -338l-28 16 q0 41 -11.5 57.5t-50.5 41.5q-193 127 -438 127q-336 0 -336 -166q0 -74 58.5 -106t256.5 -52q348 -35 471 -86q248 -103 248 -367q0 -242 -225 -364q-182 -100 -444 -101q-281 0 -562 136q-57 28 -70 28h-1q-12 0 -43 -24z" />
<glyph unicode="T" horiz-adv-x="1452" d="M14 1130v373h35q16 -69 74 -69h2h1202q59 0 76 69h35v-373h-35q-18 68 -76 68h-444v-1089q0 -55 67 -76v-33h-448v33q68 20 67 76v1089h-444q-57 0 -76 -68h-35z" />
<glyph unicode="U" horiz-adv-x="1757" d="M100 1399v35h451v-35q-70 -18 -70 -76v-713q0 -227 90.5 -309t319.5 -82q233 0 321 81t88 310v713q0 57 -67 76v35h422v-35q-66 -18 -66 -76v-803q0 -328 -203 -450q-156 -94 -507 -95q-342 0 -504 99q-207 127 -207 446v803q0 57 -68 76z" />
<glyph unicode="V" horiz-adv-x="1654" d="M-8 1399v35h510v-35q-70 -12 -70 -58q0 -23 27 -81l377 -844l383 844q23 49 22 81q0 45 -67 58v35h491v-35q-55 -8 -84 -47q-2 -6 -43 -92l-498 -1076q-33 -72 -32 -88q0 -55 67 -63v-33h-495v33q67 8 67 61q0 25 -31 90l-499 1076q-20 47 -41 92q-25 39 -84 47z" />
<glyph unicode="W" horiz-adv-x="2428" d="M-20 1399v35h497v-35q-65 -12 -65 -59q0 -28 20 -83l279 -747l301 747q27 66 26 82q0 47 -71 60v35h520v-35q-70 -18 -70 -68q0 -14 23 -74l286 -749l283 749q23 59 23 84q0 45 -76 58v35h493v-35q-53 -12 -82 -51q-16 -23 -43 -91l-411 -1060q-31 -80 -31 -101 q0 -47 76 -63v-33h-467v33q70 14 70 67q0 23 -29 97l-318 811l-321 -811q-33 -82 -33 -97q0 -47 78 -67v-33h-463v33q72 16 72 71q0 12 -31 93l-412 1060q-27 70 -43 91q-29 39 -81 51z" />
<glyph unicode="X" horiz-adv-x="1617" d="M8 0v33q61 8 102.5 55t77.5 96l435 547l-398 520q-37 51 -75 101q-41 43 -113 47v35h577v-35q-63 -14 -63 -62q0 -29 45 -86l223 -288l230 288q51 63 51 92q0 45 -74 56v35h561v-35q-49 -2 -73.5 -18.5t-55.5 -59.5q-10 -14 -55 -70l-412 -503l434 -564q16 -20 50 -61 q35 -47 59 -62q27 -20 80 -28v-33h-570v33q63 16 64 55q0 20 -39 72l-274 354l-265 -342q-43 -55 -43 -80q0 -53 72 -59v-33h-551z" />
<glyph unicode="Y" d="M-29 1399v35h568v-35q-72 -10 -72 -62q0 -23 43 -86l260 -383l264 383q43 61 43 86q0 51 -69 62v35h555v-35q-78 -10 -177 -148l-462 -651v-491q0 -53 67 -76v-33h-448v33q68 23 67 76v491l-463 651q-49 70 -73 95q-47 45 -103 53z" />
<glyph unicode="Z" horiz-adv-x="1536" d="M86 0v74l834 1124h-699q-57 0 -76 -68h-34v373h34q16 -69 74 -69h2h1217v-60l-844 -1138h747q55 0 76 67h33v-371h-33q-20 68 -76 68h-1255z" />
<glyph unicode="[" horiz-adv-x="722" d="M139 -88q68 20 68 72v1466q0 45 -68 100h451q59 0 80 68h28v-281h-28q-18 66 -80 66h-156v-1372h144q43 0 60 14t32 55h28v-280h-28q-20 68 -80 67h-451v25z" />
<glyph unicode="\" horiz-adv-x="1634" d="M72 1399v35h491v-35q-63 -14 -63 -62q0 -25 47 -86l827 -1067q16 -20 49 -61q35 -47 58 -62q27 -20 80 -28v-33h-492v33q63 14 64 55q0 25 -37 72l-846 1091q-27 37 -53 76q-37 47 -66 59q-18 8 -59 13z" />
<glyph unicode="]" horiz-adv-x="722" d="M25 100h30q18 -70 92 -69h140v1372h-154q-59 0 -78 -66h-30v281h30q18 -68 78 -68h451v-26q-68 -18 -68 -74v-1466q0 -51 68 -72v-25h-451q-57 0 -78 -67h-30v280z" />
<glyph unicode="^" horiz-adv-x="1075" d="M37 760l334 682h338l331 -682h-270l-231 475l-232 -475h-270z" />
<glyph unicode="_" horiz-adv-x="1075" d="M0 -127h1075v-180h-1075v180z" />
<glyph unicode="`" horiz-adv-x="1075" d="M258 1583v37h320v-37q-29 0 -29 -16q0 -20 14 -54l60 -139q16 -37 53 -37v-32h-225v32q25 0 24 13q0 14 -16 34l-140 170q-23 29 -61 29z" />
<glyph unicode="a" horiz-adv-x="1490" d="M4 0v29q43 6 66 32q14 14 39 64l432 868q23 45 22 86q0 43 -59 68v31h459v-31q-59 -23 -60 -72q0 -29 29 -84l444 -844q31 -57 47 -75q29 -35 76 -43v-29h-481v29q67 8 67 61q0 31 -90 205h-540q-84 -174 -84 -203q0 -51 65 -63v-29h-432zM535 459h374l-190 377z" />
<glyph unicode="b" horiz-adv-x="1458" d="M102 0v29q68 18 68 77v963q0 59 -68 78v31h824q426 0 426 -304q0 -88 -43 -145q-37 -47 -123 -96q104 -51 149 -109q54 -67 54 -176q0 -180 -140 -270q-119 -78 -307 -78h-840zM453 215h438q211 0 211 154q0 151 -208 151h-3h-438v-305zM453 735h426q184 0 184 115 q0 74 -59 98q-39 14 -125 15h-426v-228z" />
<glyph unicode="c" horiz-adv-x="1501" d="M76 588q0 289 209 459q194 155 485 155h4q141 0 256 -33q51 -14 121 -47q6 -2 115 -61q90 -47 100 -47q16 0 41 18l25 -18l-181 -258l-22 18q0 106 -158 164q-115 41 -246 41q-186 0 -317 -100q-145 -111 -146 -291q0 -180 142 -291q131 -100 315 -100q127 0 250 45 q160 57 160 161l22 17l181 -256l-25 -19q-25 18 -41 19q-12 0 -98 -47q-111 -61 -111 -62q-164 -80 -381 -80q-291 0 -487 158q-213 170 -213 455z" />
<glyph unicode="d" horiz-adv-x="1513" d="M102 0v29q68 18 68 77v963q0 61 -68 78v31h693q643 0 643 -590q0 -588 -643 -588h-693zM453 215h299q399 0 399 373q0 375 -399 375h-299v-748z" />
<glyph unicode="e" horiz-adv-x="1380" d="M102 0v29q68 18 68 77v963q0 59 -68 78v31h1063q59 0 78 65h31v-348h-31q-18 68 -78 68h-712v-256h442q59 0 80 67h29v-342h-29q-18 68 -80 68h-442v-285h745q63 0 80 66h29v-349h-29q-16 68 -80 68h-1096z" />
<glyph unicode="f" horiz-adv-x="1310" d="M102 0v29q68 18 68 77v963q0 59 -68 78v31h1055q59 0 78 65h31v-348h-31q-18 68 -78 68h-704v-256h442q59 0 80 67h29v-342h-29q-18 68 -80 68h-442v-394q0 -55 65 -77v-29h-416z" />
<glyph unicode="g" horiz-adv-x="1548" d="M76 582q0 289 221 460q203 160 498 160q166 0 391 -76q83 -28 101 -28h1q14 0 41 16l27 -12l-142 -299l-24 12q0 84 -158 129q-117 35 -229 35q-188 0 -311 -105q-129 -109 -130 -294q0 -190 136 -291q121 -92 317 -92q203 0 348 75v183h-268q-59 0 -78 -68h-29v311h29 q18 -67 76 -67h2h561v-31q-68 -18 -67 -88v-248q0 -57 67 -78v-22q-338 -188 -678 -189q-295 0 -489 154q-213 166 -213 453z" />
<glyph unicode="h" horiz-adv-x="1560" d="M102 0v29q68 18 68 77v963q0 59 -68 78v31h416v-31q-66 -18 -65 -78v-344h657v344q0 59 -68 78v31h416v-31q-68 -18 -67 -78v-963q0 -57 67 -77v-29h-416v29q68 20 68 77v406h-657v-406q0 -55 65 -77v-29h-416z" />
<glyph unicode="i" horiz-adv-x="622" d="M102 0v29q68 18 68 77v963q0 59 -68 78v31h416v-31q-66 -18 -65 -78v-963q0 -55 65 -77v-29h-416z" />
<glyph unicode="j" horiz-adv-x="1087" d="M4 31l105 321l28 -10q0 -145 299 -145q221 0 221 206v666q0 61 -67 78v31h416v-31q-66 -18 -66 -78v-670q0 -231 -117 -331q-109 -92 -346 -93q-135 0 -364 70q-20 6 -33 6q-25 0 -47 -28z" />
<glyph unicode="k" horiz-adv-x="1474" d="M102 0v29q68 18 68 77v963q0 59 -68 78v31h416v-31q-66 -18 -65 -78v-385l442 354q49 39 49 68q0 31 -61 41v31h536v-31q-57 0 -121 -41q-23 -16 -100 -82l-383 -328l436 -508q59 -70 78 -88q59 -61 92 -67q18 -4 35 -4v-29h-514v29q59 6 59 32q0 20 -57 89l-326 389 l-165 -140v-293q0 -55 65 -77v-29h-416z" />
<glyph unicode="l" horiz-adv-x="1234" d="M102 0v29q68 18 68 77v963q0 59 -68 78v31h416v-31q-66 -18 -65 -78v-854h657q63 0 80 66h29v-349h-29q-18 68 -80 68h-1008z" />
<glyph unicode="m" horiz-adv-x="1761" d="M102 0v29q68 18 68 77v963q0 59 -68 78v31h498v-31q-49 -16 -49 -60q0 -45 35 -104l293 -496l297 488q49 80 49 119q0 41 -51 53v31h485v-31q-68 -18 -68 -78v-963q0 -59 68 -77v-29h-418v29q68 18 68 77v668l-453 -737l-430 737v-668q0 -57 68 -77v-29h-392z" />
<glyph unicode="n" horiz-adv-x="1601" d="M102 0v29q68 18 68 77v963q0 59 -68 78v31h453v-31q-47 -12 -47 -41q0 -25 35 -59l631 -627v649q0 59 -68 78v31h391v-31q-68 -18 -67 -78v-963q0 -57 67 -77v-29h-422v29q47 6 47 39q0 20 -71 92l-625 616v-670q0 -57 68 -77v-29h-392z" />
<glyph unicode="o" horiz-adv-x="1527" d="M74 588q0 285 205 454q193 160 483 160q295 0 487 -162q205 -171 205 -460q0 -281 -209 -449q-195 -156 -481 -156q-291 0 -483 158q-207 170 -207 455zM360 588q0 -170 116 -280.5t288 -110.5t286.5 108.5t114.5 278.5q0 176 -113.5 285.5t-289.5 109.5 q-170 0 -286 -111.5t-116 -279.5z" />
<glyph unicode="p" horiz-adv-x="1400" d="M102 0v29q68 18 68 77v963q0 59 -68 78v31h779q477 -1 477 -349q0 -346 -488 -346h-417v-377q0 -55 65 -77v-29h-416zM453 698h401q166 0 201 60q14 26 14 71q0 86 -56.5 110t-158.5 24h-401v-265z" />
<glyph unicode="q" horiz-adv-x="1554" d="M76 588q0 283 207 454q195 160 483 160q291 0 485 -160q207 -170 207 -454q0 -264 -180 -432l104 -113q41 -43 66 -43q16 0 43 16l18 -20l-252 -232l-22 21q23 27 22 39q0 18 -170 209q-143 -57 -323 -58q-287 0 -481 160q-207 172 -207 453zM362 588q0 -170 116 -280.5 t286 -110.5q84 0 162 30q-115 145 -228 172v17q68 49 136 49q115 0 253 -121q82 103 82 246q0 172 -114.5 280.5t-288.5 108.5q-172 0 -288 -109.5t-116 -281.5z" />
<glyph unicode="r" horiz-adv-x="1476" d="M102 0v29q68 18 68 77v963q0 59 -68 78v31h781q231 0 338 -56q149 -77 149 -283q0 -159 -90 -241q-76 -68 -240 -102l224 -312q49 -70 75 -96q49 -49 103 -59v-29h-492v29q53 8 54 37q0 35 -33 81l-236 336h-282v-377q0 -55 65 -77v-29h-416zM453 698h424q164 0 194 64 q12 26 12 67q0 86 -65 115q-41 18 -141 19h-424v-265z" />
<glyph unicode="s" horiz-adv-x="1323" d="M70 80l118 289l29 -13q0 -90 193 -135q133 -33 264 -33q109 0 190 25q119 39 119 119q0 72 -74 92q-59 16 -331 39q-229 18 -334 76q-152 82 -152 276q0 197 178 301q147 86 361 86q125 0 225 -26q80 -20 250 -97q41 -18 59 -18q16 0 45 22l25 -12l-141 -274l-27 14 q0 94 -178 143q-123 33 -256 33q-96 0 -180 -29q-115 -41 -115 -118q0 -84 237 -105q344 -27 445 -61q237 -80 237 -318q0 -203 -200 -303q-156 -78 -381 -78q-217 0 -416 74q-33 12 -96 39q-16 6 -29 6q-25 0 -39 -24z" />
<glyph unicode="t" horiz-adv-x="1222" d="M16 895v348h31q16 -65 76 -65h2h975q59 0 78 65h28v-348h-28q-18 68 -78 68h-348v-857q0 -55 67 -77v-29h-416v29q68 18 68 77v857h-346q-59 0 -78 -68h-31z" />
<glyph unicode="u" horiz-adv-x="1484" d="M80 1147v31h416v-31q-68 -18 -68 -78v-565q0 -168 78 -237.5t250 -69.5q174 0 248.5 68.5t74.5 238.5v565q0 61 -65 78v31h389v-31q-66 -18 -66 -78v-623q0 -279 -166 -385q-133 -86 -428 -86q-289 0 -426 88q-170 111 -170 383v623q0 59 -67 78z" />
<glyph unicode="v" horiz-adv-x="1398" d="M-4 1147v31h471v-31q-68 -20 -68 -72q0 -27 25 -80l285 -622l282 622q27 59 27 80q0 53 -68 72v31h453v-31q-66 -25 -109 -115l-411 -868q-20 -43 -21 -70q0 -53 70 -65v-29h-461v29q68 12 68 65q0 23 -23 70l-412 868q-27 57 -38 72q-23 27 -70 43z" />
<glyph unicode="w" horiz-adv-x="2064" d="M-16 1147v31h446v-31q-63 -20 -63 -68q0 -25 20 -75l221 -553l211 526q27 66 27 98q0 53 -68 72v31h520v-31q-67 -23 -67 -73q0 -25 29 -97l202 -526l215 561q14 37 15 63q0 55 -70 72v31h459v-31q-55 -18 -88 -66q-18 -29 -47 -102l-316 -803q-16 -41 -16 -76 q0 -59 72 -71v-29h-455v29q67 20 67 73q0 12 -36 109l-232 606l-244 -606q-35 -86 -34 -111q0 -59 71 -71v-29h-438v29q63 12 64 71q0 23 -21 76l-311 803q-33 84 -45 104q-31 49 -88 64z" />
<glyph unicode="x" horiz-adv-x="1366" d="M4 0v29q57 14 92 43q25 18 68 75l344 449l-301 408q-96 131 -174 143v31h538v-31q-69 -18 -69 -63q0 -28 33 -70l159 -213l146 198q45 61 45 84q0 49 -70 64v31h512v-31q-70 -16 -106 -51q-35 -45 -72 -92l-309 -394l348 -463q80 -106 172 -118v-29h-541v29q66 12 66 55 q0 23 -35 68l-191 251l-192 -251q-31 -41 -31 -64q0 -37 70 -59v-29h-502z" />
<glyph unicode="y" horiz-adv-x="1288" d="M-23 1147v31h527v-31q-68 -18 -68 -64q0 -20 51 -92l172 -239l166 239q49 72 49 92q0 45 -67 64v31h504v-31q-57 -12 -103 -57q-18 -18 -73 -95l-349 -479v-410q0 -57 68 -77v-29h-418v29q68 18 68 77v410l-348 479q-53 72 -76 95q-45 45 -103 57z" />
<glyph unicode="z" horiz-adv-x="1310" d="M80 0v63l684 900h-549q-59 0 -78 -68h-31v348h31q18 -65 76 -65h2h1016v-52l-692 -911h596q57 0 75 66h29v-349h-29q-18 68 -75 68h-1055z" />
<glyph unicode="{" horiz-adv-x="718" d="M-61 553v330h26q12 -55 37 -64q8 -4 82 -4q39 0 53.5 29.5t14.5 150.5v391q0 66 61 115t127 49h244q43 0 61.5 13.5t28.5 54.5h28v-295h-28q-10 43 -27.5 55.5t-62.5 12.5h-86q-113 0 -113 -152v-371q0 -84 -86 -149q49 -39 66 -64q20 -35 20 -88v-374q0 -150 113 -150 h86q43 0 61.5 13.5t28.5 54.5h28v-291h-28q-18 68 -90 67h-244q-66 0 -127 48.5t-61 111.5v391q0 121 -14.5 150.5t-51.5 34.5q6 0 -66 0q-41 0 -55 -70h-26z" />
<glyph unicode="|" horiz-adv-x="1075" d="M385 -356v1790h307v-1790h-307z" />
<glyph unicode="}" horiz-adv-x="718" d="M14 111h29q16 -68 92 -68h84q115 0 115 150v374q0 82 86 152q-86 66 -86 149v371q0 152 -115 152h-84q-45 0 -63.5 -12.5t-28.5 -55.5h-29v295h29q16 -68 92 -68h244q68 0 128 -49t60 -115v-391q0 -121 14.5 -149.5t51.5 -30.5q-10 0 65 0q39 0 54 68h26v-330h-26 q-12 57 -33 65q-8 4 -86 5q-49 0 -62 -74q-4 -23 -4 -111v-391q0 -59 -58 -109.5t-130 -50.5h-244q-74 0 -92 -67h-29v291z" />
<glyph unicode="~" horiz-adv-x="1433" d="M180 756l21 28q31 -10 55 -10q25 0 63 39q53 55 82 74q61 39 140 39q74 0 201.5 -61.5t197.5 -61.5q31 0 58.5 23.5t27.5 52.5q0 23 -27 47l31 26l221 -202l-24 -29q-68 12 -58 12q-14 0 -51 -43q-49 -55 -82 -78q-57 -43 -121 -43q-57 0 -147 33q-68 29 -137 57 q-82 33 -133 33q-27 0 -57.5 -24.5t-30.5 -49.5q0 -14 20 -49l-22 -20z" />
<glyph unicode="&#xa9;" horiz-adv-x="1900" d="M96 719q0 348 262 553q238 186 596 186q367 0 602 -188q256 -205 256 -561q0 -348 -260 -549q-240 -184 -598 -185q-362 0 -600 187q-258 203 -258 557zM244 717q0 -289 215 -461q199 -158 495 -158q295 0 494 156q219 168 219 455q0 297 -213 469q-197 160 -500 159 q-293 0 -493 -159q-217 -174 -217 -461zM455 719q0 209 151 332q139 113 352 112q94 0 170 -20q29 -8 138 -61l108 -52q6 0 27 17l29 -17l-127 -190l-25 18q0 74 -117 115q-86 31 -178 31q-139 0 -229 -72q-98 -78 -99 -213q0 -137 99 -215q90 -74 229 -74q88 0 178 33 q117 41 117 112l25 19l127 -186l-29 -21q-18 18 -29 19q-8 0 -72 -35q-78 -43 -79 -43q-117 -55 -263 -56q-215 0 -354 115q-150 123 -149 332z" />
<glyph unicode="&#xab;" horiz-adv-x="1046" d="M131 610l201 424h182l-205 -424l205 -426h-182zM504 610l205 424h182l-209 -424l209 -426h-182z" />
<glyph unicode="&#xad;" horiz-adv-x="479" d="M0 408v362h33q18 -68 76 -68h260q57 0 77 68h33v-362h-33q-20 68 -77 67h-260q-57 0 -76 -67h-33z" />
<glyph unicode="&#xae;" horiz-adv-x="1910" d="M96 719q0 342 264 549q242 190 594 190t596 -194q262 -211 262 -555q0 -342 -264 -547q-242 -186 -594 -187q-354 0 -596 191q-262 207 -262 553zM244 717q0 -293 215 -463q197 -156 495 -156q295 0 494 156q219 168 219 455q0 299 -211 471q-195 158 -502 157 q-299 0 -495 -157q-215 -172 -215 -463zM508 287v32q39 8 39 37v719q0 31 -39 41v31h543q178 0 247 -49q100 -70 101 -211q0 -211 -223 -248l155 -223q35 -49 47 -62q31 -33 68 -35v-32h-320v32q31 0 31 15q0 14 -27 53l-167 244h-218v-275q0 -31 41 -37v-32h-278zM745 786 h281q88 0 119 13q57 20 57 92q0 68 -44 84t-132 16h-281v-205z" />
<glyph unicode="&#xbb;" horiz-adv-x="1046" d="M158 184l204 426l-204 424h182l203 -424l-203 -426h-182zM535 184l204 426l-204 424h180l203 -424l-203 -426h-180z" />
<glyph unicode="&#x401;" horiz-adv-x="1634" d="M131 0v33q66 23 66 76v1214q0 57 -66 76v35h1276q57 0 76 69h35v-373h-35q-18 68 -76 68h-899v-340h586q55 0 73 66h35v-361h-35q-18 68 -73 68h-586v-395h926q55 0 75 67h33v-371h-33q-20 68 -75 68h-1303zM498 1694q0 59 37.5 98t97.5 39q61 0 100 -40t39 -101 q0 -55 -42 -95.5t-97 -40.5t-95 42t-40 98zM913 1694q0 57 40 97t98 40q59 0 98 -38t39 -97q0 -61 -39 -101.5t-100 -40.5q-55 0 -95.5 42t-40.5 98z" />
<glyph unicode="&#x410;" horiz-adv-x="1751" d="M8 0v33q68 14 115 112l526 1102q25 51 25 84q0 49 -60 68v35h508v-35q-63 -14 -63 -60q0 -29 20 -69l547 -1106q57 -119 131 -131v-33h-526v33q68 14 67 65q0 23 -20 66l-96 203h-652l-98 -203q-20 -43 -20 -68q0 -43 71 -63v-33h-475zM623 563h464l-227 504h-4z" />
<glyph unicode="&#x411;" horiz-adv-x="1716" d="M131 0v33q66 18 66 76v1214q0 57 -66 76v35h1253q59 0 76 69h33v-373h-33q-18 68 -76 68h-876v-346h563q563 0 563 -428q0 -424 -563 -424h-940zM508 236h526q137 0 209 34.5t72 153.5t-73 154.5t-208 35.5h-526v-378z" />
<glyph unicode="&#x412;" horiz-adv-x="1734" d="M131 0v33q66 20 66 76v1214q0 57 -66 76v35h971q231 0 365.5 -84t134.5 -295t-195 -303q240 -92 240 -340q0 -412 -537 -412h-979zM508 236h534q131 0 195 30q90 45 90 166q0 119 -90 164q-63 31 -195 31h-534v-391zM508 864h551q106 0 160 27q71 39 71 139 q0 102 -71 139q-51 29 -160 29h-551v-334z" />
<glyph unicode="&#x413;" horiz-adv-x="1499" d="M129 0v33q66 23 66 76v1214q0 57 -66 76v35h1212q55 0 76 69h33v-373h-33q-20 68 -76 68h-835v-1089q0 -55 67 -76v-33h-444z" />
<glyph unicode="&#x414;" horiz-adv-x="1820" d="M37 -68v371h35q14 -59 55 -67q4 -2 100 -3l471 1014q31 66 31 90q0 53 -67 62v35h495v-35q-68 -10 -67 -62q0 -20 32 -90l471 -1014h80q53 0 76 70h33v-371h-33q-20 68 -76 68h-1526q-57 0 -75 -68h-35zM547 233h704l-350 785z" />
<glyph unicode="&#x415;" horiz-adv-x="1634" d="M131 0v33q66 23 66 76v1214q0 57 -66 76v35h1276q57 0 76 69h35v-373h-35q-18 68 -76 68h-899v-340h586q55 0 73 66h35v-361h-35q-18 68 -73 68h-586v-395h926q55 0 75 67h33v-371h-33q-20 68 -75 68h-1303z" />
<glyph unicode="&#x416;" horiz-adv-x="2521" d="M18 0v33q68 12 115 57q2 2 82 98l551 666l-567 457q-33 29 -64 57q-33 23 -80 31v35h586v-35q-61 -10 -61 -41q0 -20 41 -53l485 -396v414q0 59 -68 76v35h445v-35q-66 -18 -66 -76v-414l486 396q39 31 39 53q0 31 -62 41v35h588v-35q-47 -8 -80 -31q-33 -29 -66 -57 l-567 -457l553 -666q74 -88 84 -98q49 -47 111 -57v-33h-559v33q55 14 55 41q0 14 -51 78l-422 518l-109 -88v-473q0 -55 66 -76v-33h-445v33q68 23 68 76v473l-111 88l-422 -518q-51 -63 -51 -78q0 -25 56 -41v-33h-560z" />
<glyph unicode="&#x417;" horiz-adv-x="1748" d="M82 193l199 299l28 -19q0 -45 41 -90t146 -96q139 -70 385 -70q459 0 458 215q0 125 -103 171t-341 46q-104 0 -133 -4q-92 -14 -92 -70h-33v359h33q0 -55 92 -70q35 -6 133 -6q328 0 385 92q20 33 20 80q0 186 -380 187q-135 0 -263 -35q-156 -39 -233 -117 q-49 -47 -49 -102l-29 -21l-199 299l27 21q27 -29 49 -29q18 0 107 49q57 31 112 64q184 96 367 108q49 4 111 4q256 0 440 -78q252 -106 252 -325q0 -106 -42 -173t-136 -130q117 -61 168 -136q57 -79 57 -204q0 -436 -778 -437q-283 0 -498 111q-57 33 -117 64 q-92 51 -108 51q-20 0 -49 -27z" />
<glyph unicode="&#x418;" horiz-adv-x="1845" d="M131 0v33q66 23 66 76v1214q0 57 -66 76v35h444v-35q-68 -18 -67 -76v-831l829 751v80q0 59 -67 76v35h446v-35q-68 -16 -67 -76v-1214q0 -53 67 -76v-33h-446v33q68 20 67 76v833l-829 -754v-79q0 -55 67 -76v-33h-444z" />
<glyph unicode="&#x419;" horiz-adv-x="1845" d="M131 0v33q66 23 66 76v1214q0 57 -66 76v35h444v-35q-68 -18 -67 -76v-831l829 751v80q0 59 -67 76v35h446v-35q-68 -16 -67 -76v-1214q0 -53 67 -76v-33h-446v33q68 20 67 76v833l-829 -754v-79q0 -55 67 -76v-33h-444zM524 1868v28h260v-28q-35 0 -34 -23q0 -57 57 -94 q49 -31 111 -31q61 0 113 34t52 91q0 23 -32 23v28h258v-28q-14 0 -25 -21q-14 -55 -61 -155q-117 -172 -301 -172q-197 0 -310 172q-4 6 -39 100q-27 76 -49 76z" />
<glyph unicode="&#x41a;" horiz-adv-x="1724" d="M131 0v33q66 23 66 76v1214q0 57 -66 76v35h444v-35q-68 -18 -67 -76v-500l594 482q39 31 39 53q0 31 -62 41v35h588v-35q-47 -8 -80 -34t-65 -54l-568 -457l553 -666q80 -96 82 -98q47 -45 113 -57v-33h-559v33q55 14 55 41q0 14 -51 78l-422 518l-217 -174v-387 q0 -55 67 -76v-33h-444z" />
<glyph unicode="&#x41b;" horiz-adv-x="1673" d="M6 0v33q68 8 98 80q10 20 29 61l498 1073q31 66 31 90q0 53 -68 62v35h496v-35q-66 -8 -66 -62q0 -25 31 -90l497 -1073q39 -84 43 -92q31 -41 84 -49v-33h-512v33q70 14 70 59q0 27 -25 82l-378 844l-381 -844q-25 -55 -25 -82q0 -43 70 -59v-33h-492z" />
<glyph unicode="&#x41c;" horiz-adv-x="2080" d="M131 0v33q66 23 66 76v1214q0 57 -66 76v35h549v-35q-47 -12 -47 -56q0 -23 14 -49l391 -721l396 709q27 47 26 72q0 43 -53 45v35h543v-35q-68 -16 -68 -76v-1214q0 -53 68 -76v-33h-447v33q66 20 66 76v882l-555 -971l-531 971v-882q0 -55 68 -76v-33h-420z" />
<glyph unicode="&#x41d;" horiz-adv-x="1843" d="M129 0v33q66 23 66 76v1214q0 57 -66 76v35h444v-35q-68 -18 -67 -76v-461h829v461q0 59 -67 76v35h446v-35q-68 -16 -67 -76v-1214q0 -53 67 -76v-33h-446v33q68 20 67 76v518h-829v-518q0 -55 67 -76v-33h-444z" />
<glyph unicode="&#x41e;" horiz-adv-x="1835" d="M92 719q0 348 244 551q227 188 582 188q348 0 579 -198q246 -209 246 -551q0 -340 -248 -543q-231 -190 -577 -191q-348 0 -580 195q-246 209 -246 549zM414 719q0 -219 142 -359.5t362 -140.5q215 0 359 139.5t144 352.5q0 225 -139 365.5t-364 140.5 q-219 0 -361.5 -139.5t-142.5 -358.5z" />
<glyph unicode="&#x41f;" horiz-adv-x="1845" d="M131 0v33q66 23 66 76v1214q0 57 -66 76v35h1585v-35q-68 -16 -67 -76v-1214q0 -53 67 -76v-33h-446v33q68 20 67 76v1089h-829v-1089q0 -55 67 -76v-33h-444z" />
<glyph unicode="&#x420;" horiz-adv-x="1642" d="M129 0v33q66 20 66 76v1214q0 57 -66 76v35h895q262 0 395 -80q168 -102 168 -346q0 -426 -563 -426h-518v-473q0 -55 67 -76v-33h-444zM506 819h479q135 0 209 35t74 154t-72 154.5t-211 35.5h-479v-379z" />
<glyph unicode="&#x421;" horiz-adv-x="1804" d="M96 719q0 354 252 555q231 184 594 184q219 0 367 -59q51 -20 114 -53q55 -31 113 -64q88 -49 106 -49q23 0 50 29l26 -21l-198 -299l-29 21q0 92 -119 161q-86 49 -205 74q-88 18 -188 19q-240 0 -395 -127q-168 -137 -168 -371q0 -233 168 -371q158 -129 395 -129 q82 0 172 19q109 23 209 77q131 74 131 158l29 19l198 -299l-26 -19q-27 27 -50 27q-6 0 -223 -115q-131 -70 -260 -94q-94 -16 -219 -17q-358 0 -592 189q-252 205 -252 555z" />
<glyph unicode="&#x422;" horiz-adv-x="1460" d="M18 1130v373h35q16 -70 76 -69h1202q59 0 76 69h35v-373h-35q-18 68 -76 68h-444v-1089q0 -55 67 -76v-33h-448v33q68 20 67 76v1089h-444q-57 0 -76 -68h-35z" />
<glyph unicode="&#x423;" horiz-adv-x="1654" d="M-18 55l133 363l32 -10q0 -100 152 -154q113 -39 236 -39q51 0 131 23l-478 1022q-20 47 -41 92q-25 39 -84 47v35h510v-35q-70 -12 -69 -58q0 -23 26 -81l347 -773l348 773q23 49 22 81q0 45 -67 58v35h491v-35q-55 -8 -84 -47q-2 -6 -43 -92l-442 -957 q-84 -182 -199 -255t-315 -73q-141 0 -262 35q-61 20 -123 39q-76 23 -127 23q-35 0 -64 -29z" />
<glyph unicode="&#x424;" horiz-adv-x="2181" d="M63 782q0 242 170 342q135 82 394 82h309v117q0 59 -68 76v35h445v-35q-68 -16 -68 -76v-117h309q260 0 394 -80q170 -102 170 -344q0 -428 -564 -428h-309v-245q0 -55 68 -76v-33h-445v33q68 23 68 76v245h-309q-563 0 -564 428zM383 782q0 -119 73.5 -154.5 t207.5 -35.5h272v379h-272q-137 0 -209 -36t-72 -153zM1245 592h273q135 0 207.5 35.5t72.5 154.5t-70.5 154t-209.5 35h-273v-379z" />
<glyph unicode="&#x425;" horiz-adv-x="1617" d="M8 0v33q61 8 102.5 55t77.5 96l435 547l-398 520q-37 51 -75 101q-41 43 -113 47v35h577v-35q-63 -14 -63 -62q0 -29 45 -86l223 -288l230 288q51 63 51 92q0 45 -74 56v35h561v-35q-49 -2 -73.5 -18.5t-55.5 -59.5q-10 -14 -55 -70l-412 -503l434 -564q16 -20 50 -61 q35 -47 59 -62q27 -20 80 -28v-33h-570v33q63 16 64 55q0 20 -39 72l-274 354l-265 -342q-43 -55 -43 -80q0 -53 72 -59v-33h-551z" />
<glyph unicode="&#x426;" horiz-adv-x="1816" d="M133 0v33q66 23 66 76v1214q0 57 -66 76v35h447v-35q-68 -16 -68 -76v-1087h754v1087q0 59 -68 76v35h444v-35q-66 -18 -65 -76v-1087h131q57 0 76 69h33v-373h-33q-18 68 -76 68h-1575z" />
<glyph unicode="&#x427;" horiz-adv-x="1658" d="M94 1399v35h447v-35q-68 -18 -68 -76v-315q0 -119 80 -154t209 -35h385v504q0 57 -68 76v35h447v-35q-68 -18 -68 -76v-1214q0 -55 68 -76v-33h-447v33q68 18 68 76v473h-422q-279 0 -421 102t-142 324v315q0 57 -68 76z" />
<glyph unicode="&#x428;" horiz-adv-x="2213" d="M133 0v33q66 23 66 76v1214q0 57 -66 76v35h445v-35q-68 -16 -68 -76v-1087h442v1087q0 57 -67 76v35h444v-35q-66 -18 -65 -76v-1087h440v1087q0 57 -68 76v35h447v-35q-68 -18 -68 -76v-1229q0 -43 68 -61v-33h-1950z" />
<glyph unicode="&#x429;" horiz-adv-x="2256" d="M133 0v33q66 23 66 76v1214q0 57 -66 76v35h445v-35q-68 -16 -68 -76v-1087h442v1087q0 57 -67 76v35h444v-35q-66 -18 -65 -76v-1087h440v1087q0 57 -68 76v35h447v-35q-68 -18 -68 -76v-1087h133q53 0 76 69h33v-373h-33q-20 68 -76 68h-2015z" />
<glyph unicode="&#x42a;" horiz-adv-x="1732" d="M43 1130v373h33q16 -70 76 -69h600v-35q-66 -16 -66 -76v-471h440q564 0 564 -428q0 -424 -564 -424h-819v33q68 18 68 76v1089h-223q-57 0 -76 -68h-33zM686 236h404q137 0 208.5 34.5t71.5 153.5q0 121 -72.5 155.5t-207.5 34.5h-404v-378z" />
<glyph unicode="&#x42b;" horiz-adv-x="2279" d="M131 0v33q66 18 66 76v1214q0 57 -66 76v35h444v-35q-68 -18 -67 -76v-471h442q563 0 563 -428q0 -424 -563 -424h-819zM508 236h403q139 0 211 34.5t72 153.5q0 121 -72.5 155.5t-210.5 34.5h-403v-378zM1704 0v33q68 20 68 76v1214q0 57 -68 76v35h446v-35 q-68 -18 -67 -76v-1214q0 -57 67 -76v-33h-446z" />
<glyph unicode="&#x42c;" horiz-adv-x="1642" d="M129 0v33q66 18 66 76v1214q0 57 -66 76v35h444v-35q-68 -18 -67 -76v-471h518q563 0 563 -428q0 -424 -563 -424h-895zM506 236h479q137 0 210 34.5t73 153.5q0 121 -73 155.5t-210 34.5h-479v-378z" />
<glyph unicode="&#x42d;" horiz-adv-x="1806" d="M88 193l201 299l26 -19q0 -84 134 -158q98 -55 208 -77q90 -18 170 -19q211 0 359 98q162 109 196 308h-561q-55 0 -76 -68h-32v361h32q18 -66 76 -66h553q-47 178 -207 276q-145 88 -340 89q-131 0 -249 -33q-143 -41 -218 -119q-45 -47 -45 -102l-26 -21l-201 299 l27 21q29 -29 49 -29q16 0 108 49q55 33 113 64q141 74 262 96q94 16 219 16q360 0 592 -184q252 -203 252 -555q0 -350 -250 -555q-233 -188 -592 -189q-156 0 -259 25t-220 86q-57 33 -115 64q-94 51 -110 51q-20 0 -49 -27z" />
<glyph unicode="&#x42e;" horiz-adv-x="2240" d="M131 0v33q66 20 66 76v1214q0 57 -66 76v35h444v-35q-68 -16 -67 -76v-477h293q33 276 212 444t455 168q319 0 506 -219q176 -206 176 -532q0 -311 -182 -517q-188 -215 -498 -215q-283 0 -464 181q-178 174 -207 458h-291v-505q0 -55 67 -76v-33h-444zM1112 727 q0 -188 84 -328q98 -164 274 -163q174 0 275 161q86 138 86 322q0 197 -82 332q-96 164 -281 163q-174 0 -272 -163q-84 -137 -84 -324z" />
<glyph unicode="&#x42f;" horiz-adv-x="1734" d="M37 0v33q70 4 106 49q23 27 88 119l277 385q-389 70 -389 422q0 102 26 180q84 246 553 246h908v-35q-68 -18 -68 -76v-1214q0 -55 68 -76v-33h-447v33q68 18 68 76v477h-383l-289 -422q-51 -76 -51 -92q0 -31 55 -39v-33h-522zM428 1008q0 -201 315 -201h484v391h-484 q-147 0 -211 -24q-104 -43 -104 -166z" />
<glyph unicode="&#x430;" horiz-adv-x="1490" d="M4 0v29q43 6 66 32q14 14 39 64l432 868q23 45 22 86q0 43 -59 68v31h459v-31q-59 -23 -60 -72q0 -29 29 -84l444 -844q31 -57 47 -75q29 -35 76 -43v-29h-481v29q68 8 67 63q0 29 -90 203h-540q-84 -174 -84 -203q0 -51 65 -63v-29h-432zM535 459h374l-190 377z" />
<glyph unicode="&#x431;" horiz-adv-x="1411" d="M102 0v29q68 18 68 77v963q0 59 -68 78v31h1033q63 0 77 67h29v-348h-29q-14 66 -77 66h-680v-250h432q463 -1 463 -357t-463 -356h-785zM455 215h401q100 0 143 23q62 30 62 118q0 90 -62 121q-43 20 -143 21h-401v-283z" />
<glyph unicode="&#x432;" horiz-adv-x="1456" d="M102 0v29q68 18 68 77v963q0 59 -68 78v31h824q426 0 426 -304q0 -88 -43 -145q-37 -47 -123 -96q104 -51 149 -109q54 -67 54 -176q0 -180 -140 -270q-119 -78 -307 -78h-840zM453 215h438q211 0 211 154q0 152 -211 151h-438v-305zM453 735h426q184 0 184 115 q0 74 -59 98q-39 14 -125 15h-426v-228z" />
<glyph unicode="&#x433;" horiz-adv-x="1263" d="M102 0v29q68 18 68 77v963q0 59 -68 78v31h1018q59 0 78 65h29v-348h-29q-18 68 -78 68h-667v-857q0 -55 65 -77v-29h-416z" />
<glyph unicode="&#x434;" horiz-adv-x="1492" d="M31 -55v319h30q12 -47 41 -53q6 -2 78 -2l383 805q20 43 21 67q0 53 -70 66v31h461v-31q-68 -12 -68 -66q0 -25 21 -67l383 -805h63q41 0 60 55h28v-319h-28q-16 55 -60 55h-1255q-43 0 -58 -55h-30zM467 209h541l-271 596z" />
<glyph unicode="&#x435;" horiz-adv-x="1380" d="M102 0v29q68 18 68 77v963q0 59 -68 78v31h1063q59 0 78 65h31v-348h-31q-18 68 -78 68h-712v-256h442q59 0 80 67h29v-342h-29q-18 68 -80 68h-442v-285h745q63 0 80 66h29v-349h-29q-16 68 -80 68h-1096z" />
<glyph unicode="&#x436;" horiz-adv-x="2068" d="M0 0v29q18 0 37 4q41 8 168 155l436 508l-383 328q-80 68 -100 82q-61 41 -121 41v31h536v-31q-61 -10 -61 -41q0 -27 49 -68l334 -282v313q0 59 -68 78v31h412v-31q-66 -18 -65 -78v-313l333 282q47 39 47 68q0 31 -61 41v31h537v-31q-59 0 -121 -41q-23 -14 -101 -82 l-381 -328l437 -508q59 -70 80 -90q57 -59 90 -65q18 -4 34 -4v-29h-516v29q61 6 62 32q0 16 -60 89l-325 389l-55 -50v-383q0 -55 65 -77v-29h-412v29q68 18 68 77v383l-57 50l-326 -389q-57 -68 -57 -89q0 -27 59 -32v-29h-514z" />
<glyph unicode="&#x437;" horiz-adv-x="1435" d="M70 166l176 262l26 -18q0 -98 187 -162q145 -51 270 -51q352 0 352 163q0 94 -76.5 127t-263.5 33q-113 0 -135 -10q-31 -14 -31 -49h-28v317h28q0 -39 31 -51q25 -10 135 -10q182 0 246 26.5t64 94.5q0 141 -289 141q-84 0 -158 -16q-96 -20 -174 -64 q-109 -59 -108 -133l-25 -18l-178 266l26 18q18 -18 43 -18t179 90q168 98 395 98q209 0 362 -67q205 -92 205 -275q0 -141 -131 -239q168 -95 168 -277q0 -213 -227 -305q-158 -63 -410 -64q-221 0 -403.5 95.5t-190.5 95.5q-23 0 -41 -19z" />
<glyph unicode="&#x438;" horiz-adv-x="1538" d="M102 0v55q33 10 39 15q14 10 15 34v967q0 39 -54 51v56h390v-56q-55 -12 -56 -51v-625l664 572v53q0 39 -56 51v56h392v-56q-55 -12 -56 -51v-967q0 -35 56 -49v-55h-392v55q33 10 44.5 16.5t11.5 32.5v627l-664 -571v-56q0 -35 56 -49v-55h-390z" />
<glyph unicode="&#x439;" horiz-adv-x="1538" d="M102 0v55q33 10 39 15q14 10 15 34v967q0 39 -54 51v56h390v-56q-55 -12 -56 -51v-625l664 572v53q0 39 -56 51v56h392v-56q-55 -12 -56 -51v-967q0 -35 56 -49v-55h-392v55q33 10 44.5 16.5t11.5 32.5v627l-664 -571v-56q0 -35 56 -49v-55h-390zM422 1509v29h266v-29 q-31 0 -31 -20q0 -111 113 -111q111 0 111 111q0 20 -29 20v29h266v-29q-33 0 -47 -43q-16 -49 -39 -94q-70 -139 -262 -139q-193 0 -262 139q-25 51 -39 94t-47 43z" />
<glyph unicode="&#x43a;" horiz-adv-x="1474" d="M102 0v29q68 18 68 77v963q0 59 -68 78v31h416v-31q-66 -18 -65 -78v-385l442 354q49 39 49 68q0 31 -61 41v31h536v-31q-57 0 -121 -41q-23 -16 -100 -82l-383 -328l436 -508q59 -70 78 -88q59 -61 92 -67q18 -4 35 -4v-29h-514v29q59 6 59 32q0 20 -57 89l-326 389 l-165 -140v-293q0 -55 65 -77v-29h-416z" />
<glyph unicode="&#x43b;" horiz-adv-x="1406" d="M4 0v29q45 18 68 45q14 16 41 71l411 869q23 47 23 67q0 53 -70 66v31h461v-31q-68 -12 -68 -66q0 -25 21 -67l412 -869q25 -53 40 -71q23 -27 68 -45v-29h-469v29q66 25 66 71q0 25 -25 80l-283 625l-284 -625q-25 -53 -25 -80q0 -51 68 -71v-29h-455z" />
<glyph unicode="&#x43c;" horiz-adv-x="1761" d="M102 0v29q68 18 68 77v963q0 59 -68 78v31h498v-31q-49 -16 -49 -60q0 -45 35 -104l293 -496l297 488q49 80 49 119q0 41 -51 53v31h485v-31q-68 -18 -68 -78v-963q0 -59 68 -77v-29h-418v29q68 18 68 77v668l-453 -737l-430 737v-668q0 -57 68 -77v-29h-392z" />
<glyph unicode="&#x43d;" horiz-adv-x="1560" d="M102 0v29q68 18 68 77v963q0 59 -68 78v31h416v-31q-66 -18 -65 -78v-348h657v348q0 59 -68 78v31h416v-31q-68 -18 -67 -78v-963q0 -57 67 -77v-29h-416v29q68 20 68 77v406h-657v-406q0 -55 65 -77v-29h-416z" />
<glyph unicode="&#x43e;" horiz-adv-x="1527" d="M74 588q0 285 205 454q193 160 483 160q295 0 487 -162q205 -171 205 -460q0 -281 -209 -449q-195 -156 -481 -156q-291 0 -483 158q-207 170 -207 455zM360 588q0 -170 116 -280.5t288 -110.5t286.5 108.5t114.5 278.5q0 176 -113.5 285.5t-289.5 109.5 q-170 0 -286 -111.5t-116 -279.5z" />
<glyph unicode="&#x43f;" horiz-adv-x="1560" d="M102 0v29q68 18 68 77v963q0 59 -68 78v31h1356v-31q-68 -18 -67 -78v-963q0 -57 67 -77v-29h-416v29q68 20 68 77v857h-657v-857q0 -55 65 -77v-29h-416z" />
<glyph unicode="&#x440;" horiz-adv-x="1400" d="M102 0v29q68 18 68 77v963q0 59 -68 78v31h779q477 -1 477 -349q0 -346 -488 -346h-417v-377q0 -55 65 -77v-29h-416zM453 698h401q166 0 201 60q14 26 14 71q0 86 -56.5 110t-158.5 24h-401v-265z" />
<glyph unicode="&#x441;" horiz-adv-x="1501" d="M76 588q0 289 209 459q195 156 489 155q141 0 256 -33q51 -14 121 -47q6 -2 115 -61q90 -47 100 -47q16 0 41 18l25 -18l-181 -258l-22 18q0 106 -158 164q-115 41 -246 41q-186 0 -317 -100q-145 -111 -146 -291q0 -180 142 -291q131 -100 315 -100q127 0 250 45 q160 57 160 161l22 17l181 -256l-25 -19q-25 18 -41 19q-12 0 -98 -47q-111 -61 -111 -62q-164 -80 -381 -80q-291 0 -487 158q-213 170 -213 455z" />
<glyph unicode="&#x442;" horiz-adv-x="1218" d="M14 895v348h31q16 -66 78 -65h975q59 0 78 65h28v-348h-28q-18 68 -78 68h-348v-857q0 -55 67 -77v-29h-416v29q68 18 68 77v857h-346q-63 0 -78 -68h-31z" />
<glyph unicode="&#x443;" horiz-adv-x="1366" d="M-14 45l116 324l31 -13q0 -82 119 -131q94 -37 190 -37q18 0 45 11q37 14 43 16l-376 803q-61 129 -131 129v31h464v-31q-55 -6 -55 -39t21 -78l264 -592l266 592q16 37 16 78q0 33 -53 39v31h426v-31q-49 0 -108 -129l-359 -768q-57 -125 -170.5 -200t-249.5 -75 q-150 0 -307 58q-74 27 -106 26q-31 0 -60 -28z" />
<glyph unicode="&#x444;" horiz-adv-x="1810" d="M47 643q0 346 488 346h231v80q0 59 -66 78v31h412v-31q-57 -14 -68 -57v-101h234q221 0 336 -61q151 -84 151 -285q0 -182 -127 -268q-98 -68 -284 -80q-41 -4 -310 -4v-185q0 -57 68 -77v-29h-412v29q66 23 66 77v185q-266 0 -307 4q-188 14 -287 80q-125 86 -125 268z M326 643q0 -145 219 -145h221v284h-221q-100 0 -148 -20q-72 -33 -71 -119zM1044 498h224q217 0 217 145q0 88 -70 119q-47 20 -147 20h-224v-284z" />
<glyph unicode="&#x445;" horiz-adv-x="1366" d="M4 0v29q57 14 92 43q25 18 68 75l344 449l-301 408q-96 131 -174 143v31h538v-31q-70 -18 -69 -64q0 -27 33 -69l159 -213l146 198q45 61 45 84q0 49 -70 64v31h512v-31q-70 -16 -106 -51q-35 -45 -72 -92l-309 -394l348 -463q80 -106 172 -118v-29h-541v29q66 12 66 55 q0 23 -35 68l-191 251l-192 -251q-31 -41 -31 -64q0 -37 70 -59v-29h-502z" />
<glyph unicode="&#x446;" horiz-adv-x="1505" d="M102 0v29q68 18 68 77v963q0 59 -68 78v31h416v-31q-66 -18 -65 -78v-854h581v854q0 59 -67 78v31h415v-31q-68 -18 -67 -78v-854h102q39 0 58 55h30v-325h-30q-16 55 -58 55h-1315z" />
<glyph unicode="&#x447;" horiz-adv-x="1374" d="M57 1147v31h394v-31q-55 -14 -56 -64v-245q0 -96 76 -131q53 -25 162 -25h289v387q0 59 -66 78v31h416v-31q-68 -18 -68 -78v-963q0 -57 68 -77v-29h-416v29q66 18 66 77v369h-347q-231 0 -346.5 84t-115.5 266v258q0 49 -56 64z" />
<glyph unicode="&#x448;" horiz-adv-x="1853" d="M102 0v29q68 18 68 77v963q0 59 -68 78v31h416v-31q-66 -18 -65 -78v-854h335v854q0 59 -67 78v31h412v-31q-68 -18 -68 -78v-854h336v854q0 59 -66 78v31h416v-31q-68 -18 -68 -78v-963q0 -57 68 -77v-29h-1649z" />
<glyph unicode="&#x449;" horiz-adv-x="1871" d="M102 0v29q68 18 68 77v963q0 59 -68 78v31h416v-31q-66 -18 -65 -78v-854h335v854q0 59 -67 78v31h412v-31q-68 -18 -68 -78v-854h336v854q0 59 -66 78v31h416v-31q-68 -18 -68 -78v-854h101q41 0 59 55h29v-325h-29q-16 55 -59 55h-1682z" />
<glyph unicode="&#x44a;" horiz-adv-x="1464" d="M33 895v348h30q18 -66 78 -65h496v-31q-68 -18 -68 -78v-362h363q205 0 332 -74q155 -91 155 -281q0 -193 -155 -280q-125 -72 -332 -72h-711v29q68 23 68 77v857h-148q-59 0 -78 -68h-30zM569 215h301q117 0 168 16q92 31 92 121q0 92 -92 123q-51 16 -168 17h-301v-277 z" />
<glyph unicode="&#x44b;" horiz-adv-x="1941" d="M102 0v29q68 20 68 77v963q0 63 -68 78v31h416v-31q-66 -18 -65 -78v-362h360q205 0 332 -74q155 -91 155 -281q0 -193 -155 -280q-125 -72 -332 -72h-711zM453 215h299q117 0 168 16q94 31 94 121q0 92 -92 123q-51 16 -170 17h-299v-277zM1423 0v29q66 18 66 77v963 q0 59 -66 78v31h416v-31q-68 -18 -67 -78v-963q0 -57 67 -77v-29h-416z" />
<glyph unicode="&#x44c;" horiz-adv-x="1402" d="M102 0v29q68 20 68 77v963q0 63 -68 78v31h416v-31q-66 -18 -65 -78v-362h417q205 0 332 -74q156 -91 156 -281q0 -193 -156 -280q-125 -72 -332 -72h-768zM453 215h356q117 0 168 16q92 31 92 121q0 92 -92 123q-51 16 -168 17h-356v-277z" />
<glyph unicode="&#x44d;" horiz-adv-x="1501" d="M70 164l178 256l22 -17q0 -104 160 -161q123 -45 250 -45q158 0 278 75q135 82 170 228h-413q-61 0 -80 -68h-31v342h31q20 -68 80 -67h403q-47 133 -176 206q-119 66 -268 66q-129 0 -246 -43q-158 -55 -158 -162l-22 -18l-178 258l22 18q25 -18 43 -18q8 0 101 49 q109 57 114 59q172 80 377 80q297 0 490 -155q208 -168 208 -459q0 -287 -211 -455q-197 -158 -489 -158q-215 0 -379 80q-55 31 -113 62q-88 47 -98 47q-18 0 -43 -19z" />
<glyph unicode="&#x44e;" horiz-adv-x="1996" d="M102 0v29q68 18 68 77v963q0 61 -68 78v31h416v-31q-66 -18 -65 -78v-362h243q35 229 205 364q164 131 397 131q276 0 446.5 -173t170.5 -449q0 -268 -173 -436.5t-444 -168.5q-242 0 -407 142q-172 143 -199 381h-239v-392q0 -55 65 -77v-29h-416zM965 588 q0 -164 84 -273q90 -119 249 -118q162 0 252 116q84 105 84 271q0 170 -82 276q-90 119 -254 119q-160 0 -249 -119q-84 -109 -84 -272z" />
<glyph unicode="&#x44f;" horiz-adv-x="1478" d="M37 0v29q80 14 180 155l221 312q-164 35 -237 98q-92 78 -92 229q0 354 495 355h772v-31q-68 -18 -67 -78v-963q0 -59 67 -77v-29h-415v29q68 20 67 77v373h-285l-235 -332q-33 -47 -33 -81q0 -29 55 -37v-29h-493zM393 823q0 -35 10 -59q31 -76 256 -76h369v275h-377 q-219 0 -248 -74q-10 -27 -10 -66z" />
<glyph unicode="&#x451;" horiz-adv-x="1380" d="M102 0v29q68 18 68 77v963q0 59 -68 78v31h1063q59 0 78 65h31v-348h-31q-18 68 -78 68h-712v-256h442q59 0 80 67h26v-342h-26q-18 68 -80 68h-442v-285h745q63 0 80 66h29v-349h-29q-16 68 -80 68h-1096zM367 1450q0 57 37.5 97t95.5 40q59 0 99 -41t40 -100 q0 -55 -42 -95t-97 -40t-94 42t-39 97zM782 1450q0 57 39 97t97 40q59 0 98 -38t39 -97q0 -61 -39 -101t-101 -40q-57 0 -95 41t-38 98z" />
<glyph unicode="&#x2000;" horiz-adv-x="948" />
<glyph unicode="&#x2001;" horiz-adv-x="1896" />
<glyph unicode="&#x2002;" horiz-adv-x="948" />
<glyph unicode="&#x2003;" horiz-adv-x="1896" />
<glyph unicode="&#x2004;" horiz-adv-x="632" />
<glyph unicode="&#x2005;" horiz-adv-x="474" />
<glyph unicode="&#x2006;" horiz-adv-x="316" />
<glyph unicode="&#x2007;" horiz-adv-x="316" />
<glyph unicode="&#x2008;" horiz-adv-x="237" />
<glyph unicode="&#x2009;" horiz-adv-x="379" />
<glyph unicode="&#x200a;" horiz-adv-x="105" />
<glyph unicode="&#x2010;" horiz-adv-x="479" d="M0 408v362h33q18 -68 76 -68h260q57 0 77 68h33v-362h-33q-20 68 -77 67h-260q-57 0 -76 -67h-33z" />
<glyph unicode="&#x2011;" horiz-adv-x="479" d="M0 408v362h33q18 -68 76 -68h260q57 0 77 68h33v-362h-33q-20 68 -77 67h-260q-57 0 -76 -67h-33z" />
<glyph unicode="&#x2012;" horiz-adv-x="479" d="M0 408v362h33q18 -68 76 -68h260q57 0 77 68h33v-362h-33q-20 68 -77 67h-260q-57 0 -76 -67h-33z" />
<glyph unicode="&#x2013;" horiz-adv-x="1075" d="M57 410v356h33q14 -66 76 -66h743q57 0 76 66h35v-356h-35q-16 68 -76 67h-743q-61 0 -76 -67h-33z" />
<glyph unicode="&#x2014;" horiz-adv-x="2152" d="M0 410v356h33q23 -66 76 -66h1933q61 0 76 66h34v-356h-34q-16 68 -76 67h-1933q-55 0 -76 -67h-33z" />
<glyph unicode="&#x2018;" horiz-adv-x="659" d="M158 1057q0 231 243 401l52 -67q-80 -53 -117 -103q-45 -57 -62 -145q49 12 74 12q74 0 114 -50t40 -124q0 -76 -41 -123t-115 -47q-92 0 -143 80q-45 70 -45 166z" />
<glyph unicode="&#x2019;" horiz-adv-x="659" d="M158 1290q0 74 41 121t114 47q96 0 146 -78q43 -66 43 -166q0 -233 -246 -403l-49 68q82 51 122 105t56 142q-53 -12 -74 -12q-72 0 -112.5 51.5t-40.5 124.5z" />
<glyph unicode="&#x201a;" horiz-adv-x="659" d="M158 150q0 74 42 121.5t113 47.5q96 0 146 -77q43 -68 43 -168q0 -231 -246 -404l-49 68q84 55 119 104q43 55 59 146q-53 -12 -74 -13q-72 0 -112.5 51.5t-40.5 123.5z" />
<glyph unicode="&#x201c;" horiz-adv-x="1161" d="M158 1057q0 231 243 401l52 -67q-80 -53 -117 -103q-45 -57 -62 -145q49 12 74 12q74 0 114 -50t40 -124q0 -76 -41 -123t-115 -47q-92 0 -143 80q-45 70 -45 166zM659 1057q0 231 244 401l51 -67q-82 -55 -118 -103q-41 -55 -58 -145q45 12 74 12q74 0 113 -49t39 -125 q0 -74 -40 -122t-114 -48q-92 0 -145 80q-45 68 -46 166z" />
<glyph unicode="&#x201d;" horiz-adv-x="1161" d="M158 1290q0 74 41 121t114 47q96 0 146 -78q43 -66 43 -166q0 -233 -246 -403l-49 68q82 51 122 105t56 142q-53 -12 -74 -12q-72 0 -112.5 51.5t-40.5 124.5zM659 1290q0 74 41 121t115 47q96 0 146 -78q43 -66 43 -166q0 -233 -244 -403l-49 68q152 98 176 247 q-49 -12 -74 -12q-72 0 -113 51.5t-41 124.5z" />
<glyph unicode="&#x201e;" horiz-adv-x="1161" d="M158 150q0 74 42 121.5t113 47.5q96 0 146 -77q43 -68 43 -168q0 -231 -246 -404l-49 68q84 55 119 104q43 55 59 146q-53 -12 -74 -13q-72 0 -112.5 51.5t-40.5 123.5zM659 150q0 74 42 121.5t114 47.5q96 0 146 -77q43 -68 43 -168q0 -231 -244 -404l-49 68 q82 55 118 104q43 57 58 146q-49 -12 -74 -13q-72 0 -113 51.5t-41 123.5z" />
<glyph unicode="&#x2026;" horiz-adv-x="1978" d="M158 147q0 70 51 121t121 51q74 0 123 -49t49 -123q0 -72 -50.5 -122t-121.5 -50q-70 0 -121 51.5t-51 120.5zM817 147q0 70 51.5 121t120.5 51q74 0 123 -49t49 -123q0 -72 -50 -122t-122 -50q-70 0 -121 51.5t-51 120.5zM1477 147q0 70 51 121t121 51q76 0 125 -48 t49 -124q0 -72 -51.5 -122t-122.5 -50q-70 0 -121 51.5t-51 120.5z" />
<glyph unicode="&#x202f;" horiz-adv-x="379" />
<glyph unicode="&#x2039;" horiz-adv-x="671" d="M131 610l201 424h182l-205 -424l205 -426h-182z" />
<glyph unicode="&#x203a;" horiz-adv-x="671" d="M158 184l204 426l-204 424h182l203 -424l-203 -426h-182z" />
<glyph unicode="&#x205f;" horiz-adv-x="474" />
<glyph unicode="&#x2122;" horiz-adv-x="2189" d="M2 1249v221h33q12 -37 43 -36h745q33 0 43 36h33v-221h-33q-10 37 -41 37h-270v-602q0 -27 41 -37v-29h-291v29q41 10 41 37v602h-272q-25 0 -39 -37h-33zM973 618v29q43 10 43 37v682q0 27 -43 37v31h356v-31q-31 0 -31 -23q0 -16 23 -53l223 -369l219 357q35 57 35 67 q0 20 -33 21v31h351v-31q-41 -10 -41 -37v-682q0 -27 41 -37v-29h-291v29q41 10 41 37v471l-338 -532l-322 530v-469q0 -27 41 -37v-29h-274z" />
<glyph unicode="&#x25fc;" horiz-adv-x="1177" d="M0 0v1178h1178v-1178h-1178z" />
</font>
</defs>
</svg>
